<svg xmlns="http://www.w3.org/2000/svg" viewBox="0 0 1024 1024" role="img" aria-label="Textura ERP">
  <defs>
    <linearGradient id="bg" x1="156" y1="88" x2="852" y2="936" gradientUnits="userSpaceOnUse">
      <stop offset="0" stop-color="#10a994" />
      <stop offset="0.52" stop-color="#008a7a" />
      <stop offset="1" stop-color="#075f58" />
    </linearGradient>
    <linearGradient id="shine" x1="226" y1="126" x2="792" y2="816" gradientUnits="userSpaceOnUse">
      <stop offset="0" stop-color="#ffffff" stop-opacity="0.32" />
      <stop offset="0.55" stop-color="#ffffff" stop-opacity="0" />
    </linearGradient>
    <filter id="depth" x="-20%" y="-20%" width="140%" height="140%">
      <feDropShadow dx="0" dy="36" stdDeviation="28" flood-color="#043d38" flood-opacity="0.36" />
    </filter>
    <filter id="markShadow" x="-20%" y="-20%" width="140%" height="140%">
      <feDropShadow dx="0" dy="18" stdDeviation="16" flood-color="#042f2b" flood-opacity="0.28" />
    </filter>
  </defs>

  <rect width="1024" height="1024" rx="232" fill="url(#bg)" filter="url(#depth)" />
  <path d="M148 220c174-76 362-86 564-30 66 18 124 21 174 9v604c-136 56-293 58-472 7-99-29-188-33-266-14V220Z" fill="#ffffff" opacity="0.06" />
  <g opacity="0.18">
    <path d="M160 304h704" stroke="#d9fff8" stroke-width="18" stroke-linecap="round" />
    <path d="M160 444h704" stroke="#d9fff8" stroke-width="18" stroke-linecap="round" />
    <path d="M160 584h704" stroke="#d9fff8" stroke-width="18" stroke-linecap="round" />
    <path d="M160 724h704" stroke="#d9fff8" stroke-width="18" stroke-linecap="round" />
    <path d="M304 160v704" stroke="#d9fff8" stroke-width="18" stroke-linecap="round" />
    <path d="M512 160v704" stroke="#d9fff8" stroke-width="18" stroke-linecap="round" />
    <path d="M720 160v704" stroke="#d9fff8" stroke-width="18" stroke-linecap="round" />
  </g>
  <rect x="116" y="96" width="792" height="792" rx="198" fill="url(#shine)" />

  <circle cx="512" cy="512" r="274" fill="#effffb" opacity="0.94" filter="url(#markShadow)" />
  <circle cx="512" cy="512" r="224" fill="#ffffff" opacity="0.92" />

  <path
    d="M702 342 592 305c-18 54-50 81-96 81s-78-27-96-81l-110 37c-31 10-49 43-41 75l26 102c7 28 35 46 64 41l35-6v178c0 37 30 67 67 67h110c37 0 67-30 67-67V554l35 6c29 5 57-13 64-41l26-102c8-32-10-65-41-75Z"
    fill="#008a7a"
  />
  <path
    d="M419 310c17 43 42 65 77 65 36 0 62-22 78-65"
    fill="none"
    stroke="#ffffff"
    stroke-width="28"
    stroke-linecap="round"
  />
  <path d="M392 494h240" stroke="#ffffff" stroke-width="30" stroke-linecap="round" opacity="0.92" />
  <path d="M432 594h160" stroke="#ffffff" stroke-width="30" stroke-linecap="round" opacity="0.84" />
</svg>
